<svg width="52" height="50" viewBox="0 0 52 50" fill="none" xmlns="http://www.w3.org/2000/svg">
<g clip-path="url(#clip0_3_16)">
<path d="M7.08142 13.5C6.12483 12.9477 5.79062 11.7191 6.41758 10.8097C9.20852 6.7614 13.1416 3.61278 17.7361 1.77976C22.9518 -0.301095 28.7162 -0.565373 34.1004 1.02951C39.4846 2.62439 44.1751 5.98555 47.416 10.5714C50.657 15.1572 52.2596 20.7006 51.9657 26.3084C51.6718 31.9162 49.4985 37.2617 45.796 41.4837C42.0934 45.7056 37.0773 48.558 31.5559 49.5814C26.0344 50.6047 20.3293 49.7393 15.3596 47.1247C10.9819 44.8214 7.39952 41.279 5.04703 36.9611C4.51857 35.9912 4.97938 34.8042 5.98845 34.3549L8.04393 33.4398C9.053 32.9905 10.2262 33.4511 10.7803 34.4066C12.5439 37.4477 15.1349 39.9442 18.2697 41.5935C21.9969 43.5545 26.2758 44.2035 30.4169 43.436C34.558 42.6685 38.3201 40.5292 41.097 37.3627C43.8739 34.1963 45.5039 30.1871 45.7243 25.9813C45.9447 21.7755 44.7427 17.6179 42.312 14.1785C39.8813 10.7392 36.3635 8.21829 32.3253 7.02213C28.2871 5.82597 23.9638 6.02418 20.0521 7.58482C16.762 8.89741 13.9242 11.1095 11.8524 13.9495C11.2014 14.8418 9.98656 15.1773 9.02998 14.625L7.08142 13.5Z"/>
<path d="M2.83547 26.1655C1.50388 26.9383 -0.164958 25.9799 -0.168431 24.4403L-0.201641 9.71786C-0.205113 8.17826 1.45938 7.21226 2.79444 7.97905L15.561 15.3115C16.8961 16.0783 16.9004 18.0028 15.5688 18.7756L2.83547 26.1655Z"/>
<path d="M36 23.7679C37.3333 24.5377 37.3333 26.4623 36 27.2321L23.25 34.5933C21.9167 35.3631 20.25 34.4008 20.25 32.8612V18.1388C20.25 16.5992 21.9167 15.6369 23.25 16.4067L36 23.7679Z"/>
</g>
</svg>
