<svg width="81" height="86" viewBox="0 0 81 86" fill="none" xmlns="http://www.w3.org/2000/svg">
<g clip-path="url(#clip0_1_126)">
<path d="M6.02739 35.3945C5.87419 35.3043 5.68452 35.3038 5.52982 35.3931C5.37513 35.4824 5.2789 35.648 5.27739 35.8275L5.16915 48.7313C5.16765 48.9108 5.2611 49.077 5.4143 49.1671L16.428 55.6497C16.5812 55.7399 16.7709 55.7404 16.9256 55.6511C17.0803 55.5618 17.1765 55.3962 17.178 55.2167L17.2862 42.3129C17.2878 42.1334 17.1943 41.9672 17.0411 41.8771L6.02739 35.3945Z" fill="#D9D9D9" stroke="black" stroke-linejoin="round"/>
<path d="M17.5857 42.2438C17.4325 42.1537 17.2429 42.1531 17.0882 42.2424C16.9335 42.3318 16.8373 42.4973 16.8357 42.6768L16.7275 55.5807C16.726 55.7602 16.8194 55.9263 16.9727 56.0165L27.9864 62.499C28.1396 62.5892 28.3292 62.5897 28.4839 62.5004C28.6386 62.4111 28.7349 62.2455 28.7364 62.066L28.8446 49.1622C28.8461 48.9827 28.7527 48.8166 28.5995 48.7264L17.5857 42.2438Z" fill="#D9D9D9" stroke="black" stroke-linejoin="round"/>
<path d="M29.144 49.0932C28.9908 49.003 28.8011 49.0025 28.6464 49.0918C28.4917 49.1811 28.3955 49.3467 28.394 49.5262L28.2857 62.43C28.2842 62.6095 28.3777 62.7757 28.5309 62.8658L39.5446 69.3484C39.6978 69.4386 39.8875 69.4391 40.0422 69.3498C40.1969 69.2605 40.2931 69.0949 40.2946 68.9154L40.4028 56.0116C40.4043 55.8321 40.3109 55.6659 40.1577 55.5758L29.144 49.0932Z" fill="#D9D9D9" stroke="black" stroke-linejoin="round"/>
<path d="M5.8134 49.0932C5.6602 49.003 5.47053 49.0025 5.31584 49.0918C5.16114 49.1811 5.06491 49.3467 5.06341 49.5262L4.95516 62.43C4.95366 62.6095 5.04711 62.7757 5.20031 62.8658L16.214 69.3484C16.3672 69.4386 16.5569 69.4391 16.7116 69.3498C16.8663 69.2605 16.9625 69.0949 16.964 68.9154L17.0723 56.0116C17.0738 55.8321 16.9803 55.6659 16.8271 55.5758L5.8134 49.0932Z" fill="#D9D9D9" stroke="black" stroke-linejoin="round"/>
<path d="M17.3716 55.9425C17.2184 55.8524 17.0288 55.8518 16.8741 55.9411C16.7194 56.0305 16.6231 56.196 16.6216 56.3755L16.5134 69.2794C16.5119 69.4589 16.6053 69.625 16.7585 69.7152L27.7723 76.1977C27.9254 76.2879 28.1151 76.2884 28.2698 76.1991C28.4245 76.1098 28.5207 75.9442 28.5222 75.7647L28.6305 62.8609C28.632 62.6814 28.5385 62.5153 28.3853 62.4251L17.3716 55.9425Z" fill="#D9D9D9" stroke="black" stroke-linejoin="round"/>
<path d="M28.93 62.7919C28.7768 62.7017 28.5871 62.7012 28.4324 62.7905C28.2777 62.8798 28.1815 63.0454 28.18 63.2249L28.0717 76.1287C28.0702 76.3082 28.1637 76.4743 28.3169 76.5645L39.3306 83.0471C39.4838 83.1372 39.6735 83.1378 39.8282 83.0485C39.9829 82.9591 40.0791 82.7935 40.0806 82.6141L40.1888 69.7102C40.1903 69.5307 40.0969 69.3646 39.9437 69.2744L28.93 62.7919Z" fill="#D9D9D9" stroke="black" stroke-linejoin="round"/>
<path d="M74.7052 36.1837C74.8604 36.097 75.05 36.1007 75.2027 36.1935C75.3553 36.2862 75.4478 36.454 75.4453 36.6334L75.2638 49.5364C75.2613 49.7159 75.1641 49.8799 75.0089 49.9666L63.8525 56.2003C63.6973 56.287 63.5077 56.2833 63.355 56.1905C63.2024 56.0978 63.1099 55.9301 63.1124 55.7506L63.2939 42.8476C63.2964 42.6681 63.3935 42.5041 63.5487 42.4174L74.7052 36.1837Z" fill="#D9D9D9" stroke="black" stroke-linejoin="round"/>
<path d="M62.9961 42.7718C63.1513 42.6851 63.3409 42.6889 63.4936 42.7816C63.6462 42.8744 63.7387 43.0421 63.7362 43.2216L63.5547 56.1246C63.5522 56.3041 63.455 56.468 63.2998 56.5548L52.1434 62.7885C51.9882 62.8752 51.7986 62.8714 51.6459 62.7787C51.4932 62.6859 51.4008 62.5182 51.4033 62.3387L51.5848 49.4357C51.5873 49.2562 51.6844 49.0922 51.8396 49.0055L62.9961 42.7718Z" fill="#D9D9D9" stroke="black" stroke-linejoin="round"/>
<path d="M51.287 49.36C51.4422 49.2733 51.6318 49.277 51.7845 49.3698C51.9371 49.4625 52.0296 49.6302 52.0271 49.8097L51.8456 62.7127C51.8431 62.8922 51.7459 63.0562 51.5907 63.1429L40.4343 69.3766C40.2791 69.4633 40.0894 69.4596 39.9368 69.3668C39.7841 69.274 39.6917 69.1063 39.6942 68.9268L39.8756 56.0238C39.8782 55.8443 39.9753 55.6804 40.1305 55.5937L51.287 49.36Z" fill="#D9D9D9" stroke="black" stroke-linejoin="round"/>
<path d="M6.02739 21.3945C5.87419 21.3043 5.68452 21.3038 5.52982 21.3931C5.37513 21.4824 5.2789 21.648 5.27739 21.8275L5.16915 34.7313C5.16765 34.9108 5.2611 35.077 5.4143 35.1671L16.428 41.6497C16.5812 41.7399 16.7709 41.7404 16.9256 41.6511C17.0803 41.5618 17.1765 41.3962 17.178 41.2167L17.2862 28.3129C17.2878 28.1334 17.1943 27.9672 17.0411 27.8771L6.02739 21.3945Z" fill="#D9D9D9" stroke="black" stroke-linejoin="round"/>
<path d="M17.5857 28.2438C17.4325 28.1537 17.2429 28.1531 17.0882 28.2424C16.9335 28.3318 16.8373 28.4973 16.8357 28.6768L16.7275 41.5807C16.726 41.7602 16.8194 41.9263 16.9727 42.0165L27.9864 48.499C28.1396 48.5892 28.3292 48.5897 28.4839 48.5004C28.6386 48.4111 28.7349 48.2455 28.7364 48.066L28.8446 35.1622C28.8461 34.9827 28.7527 34.8166 28.5995 34.7264L17.5857 28.2438Z" fill="#D9D9D9" stroke="black" stroke-linejoin="round"/>
<path d="M29.144 35.0932C28.9908 35.003 28.8011 35.0025 28.6464 35.0918C28.4917 35.1811 28.3955 35.3467 28.394 35.5262L28.2857 48.43C28.2842 48.6095 28.3777 48.7757 28.5309 48.8658L39.5446 55.3484C39.6978 55.4386 39.8875 55.4391 40.0422 55.3498C40.1969 55.2605 40.2931 55.0949 40.2946 54.9154L40.4028 42.0116C40.4043 41.8321 40.3109 41.6659 40.1577 41.5758L29.144 35.0932Z" fill="#D9D9D9" stroke="black" stroke-linejoin="round"/>
<path d="M17.8736 27.1039C17.7185 27.1908 17.6225 27.3543 17.6217 27.533C17.6209 27.7116 17.7155 27.8781 17.8698 27.9699L28.9614 34.5651C29.1157 34.6568 29.3062 34.6598 29.4613 34.5729L40.6102 28.3257C40.7653 28.2388 40.8613 28.0753 40.8621 27.8966C40.8629 27.718 40.7684 27.5514 40.6141 27.4597L29.5225 20.8645C29.3682 20.7728 29.1776 20.7698 29.0225 20.8567L17.8736 27.1039Z" fill="#D9D9D9" stroke="black" stroke-linejoin="round"/>
<path d="M29.6138 20.571C29.4587 20.6579 29.3627 20.8215 29.3619 21.0001C29.3611 21.1787 29.4557 21.3453 29.6099 21.437L40.7015 28.0322C40.8558 28.124 41.0464 28.127 41.2015 28.0401L52.3504 21.7929C52.5055 21.706 52.6015 21.5424 52.6023 21.3638C52.6031 21.1852 52.5086 21.0186 52.3543 20.9269L41.2627 14.3317C41.1084 14.2399 40.9178 14.2369 40.7627 14.3238L29.6138 20.571Z" fill="#D9D9D9" stroke="black" stroke-linejoin="round"/>
<path d="M41.3538 14.0383C41.1988 14.1252 41.1027 14.2888 41.102 14.4674C41.1012 14.646 41.1957 14.8126 41.35 14.9043L52.4416 21.4995C52.5959 21.5913 52.7865 21.5943 52.9415 21.5074L64.0905 15.2602C64.2455 15.1733 64.3416 15.0097 64.3424 14.8311C64.3432 14.6524 64.2486 14.4859 64.0943 14.3942L53.0027 7.79895C52.8484 7.7072 52.6578 7.70422 52.5028 7.79112L41.3538 14.0383Z" fill="#D9D9D9" stroke="black" stroke-linejoin="round"/>
<path d="M29.5985 34.1909C29.4435 34.2778 29.3474 34.4414 29.3466 34.62C29.3458 34.7986 29.4404 34.9652 29.5947 35.0569L40.6863 41.6521C40.8406 41.7439 41.0312 41.7469 41.1862 41.66L52.3352 35.4128C52.4902 35.3259 52.5863 35.1623 52.587 34.9837C52.5878 34.8051 52.4933 34.6385 52.339 34.5468L41.2474 27.9516C41.0931 27.8598 40.9025 27.8568 40.7475 27.9437L29.5985 34.1909Z" fill="#D9D9D9" stroke="black" stroke-linejoin="round"/>
<path d="M41.3387 27.6582C41.1836 27.7451 41.0876 27.9086 41.0868 28.0873C41.086 28.2659 41.1805 28.4325 41.3348 28.5242L52.4264 35.1194C52.5807 35.2111 52.7713 35.2141 52.9264 35.1272L64.0753 28.88C64.2303 28.7931 64.3264 28.6296 64.3272 28.4509C64.328 28.2723 64.2334 28.1058 64.0791 28.014L52.9875 21.4188C52.8332 21.3271 52.6426 21.3241 52.4876 21.411L41.3387 27.6582Z" fill="#D9D9D9" stroke="black" stroke-linejoin="round"/>
<path d="M53.0788 21.1253C52.9237 21.2122 52.8277 21.3758 52.8269 21.5544C52.8261 21.7331 52.9206 21.8996 53.0749 21.9914L64.1665 28.5866C64.3208 28.6783 64.5114 28.6813 64.6665 28.5944L75.8154 22.3472C75.9705 22.2603 76.0665 22.0967 76.0673 21.9181C76.0681 21.7395 75.9735 21.5729 75.8192 21.4812L64.7276 14.886C64.5733 14.7942 64.3828 14.7913 64.2277 14.8782L53.0788 21.1253Z" fill="#D9D9D9" stroke="black" stroke-linejoin="round"/>
<path d="M5.78061 20.0498C5.62553 20.1367 5.52951 20.3003 5.52871 20.4789C5.52791 20.6576 5.62246 20.8241 5.77674 20.9159L16.8684 27.5111C17.0226 27.6028 17.2132 27.6058 17.3683 27.5189L28.5172 21.2717C28.6723 21.1848 28.7683 21.0212 28.7691 20.8426C28.7699 20.664 28.6754 20.4974 28.5211 20.4057L17.4295 13.8105C17.2752 13.7187 17.0846 13.7158 16.9295 13.8027L5.78061 20.0498Z" fill="#D9D9D9" stroke="black" stroke-linejoin="round"/>
<path d="M17.5208 13.517C17.3657 13.6039 17.2697 13.7675 17.2689 13.9461C17.2681 14.1247 17.3626 14.2913 17.5169 14.383L28.6085 20.9782C28.7628 21.07 28.9534 21.0729 29.1085 20.9861L40.2574 14.7389C40.4125 14.652 40.5085 14.4884 40.5093 14.3098C40.5101 14.1311 40.4155 13.9646 40.2613 13.8729L29.1696 7.27764C29.0154 7.1859 28.8248 7.18292 28.6697 7.26982L17.5208 13.517Z" fill="#D9D9D9" stroke="black" stroke-linejoin="round"/>
<path d="M29.2609 6.98429C29.1058 7.07119 29.0098 7.23476 29.009 7.41339C29.0082 7.59201 29.1027 7.75857 29.257 7.8503L40.3486 14.4455C40.5029 14.5373 40.6935 14.5402 40.8486 14.4533L51.9975 8.20615C52.1526 8.11925 52.2486 7.95568 52.2494 7.77706C52.2502 7.59843 52.1557 7.43188 52.0014 7.34014L40.9098 0.744929C40.7555 0.653188 40.5649 0.650206 40.4098 0.737106L29.2609 6.98429Z" fill="#D9D9D9" stroke="black" stroke-linejoin="round"/>
<path d="M74.7389 22.1837C74.8941 22.097 75.0837 22.1007 75.2364 22.1935C75.389 22.2863 75.4815 22.454 75.479 22.6335L75.2975 35.5365C75.295 35.716 75.1978 35.8799 75.0426 35.9667L63.8862 42.2003C63.731 42.2871 63.5414 42.2833 63.3887 42.1906C63.236 42.0978 63.1436 41.9301 63.1461 41.7506L63.3276 28.8476C63.3301 28.6681 63.4272 28.5041 63.5824 28.4174L74.7389 22.1837Z" fill="#D9D9D9" stroke="black" stroke-linejoin="round"/>
<path d="M63.0298 28.7719C63.185 28.6852 63.3746 28.6889 63.5273 28.7817C63.6799 28.8744 63.7724 29.0422 63.7699 29.2216L63.5884 42.1246C63.5859 42.3041 63.4887 42.4681 63.3335 42.5548L52.1771 48.7885C52.0219 48.8752 51.8322 48.8715 51.6796 48.7787C51.5269 48.686 51.4345 48.5182 51.437 48.3388L51.6184 35.4358C51.621 35.2563 51.7181 35.0923 51.8733 35.0056L63.0298 28.7719Z" fill="#D9D9D9" stroke="black" stroke-linejoin="round"/>
<path d="M51.3206 35.36C51.4758 35.2733 51.6654 35.277 51.8181 35.3698C51.9707 35.4626 52.0632 35.6303 52.0607 35.8098L51.8792 48.7128C51.8767 48.8923 51.7795 49.0562 51.6244 49.143L40.4679 55.3766C40.3127 55.4634 40.1231 55.4596 39.9704 55.3669C39.8178 55.2741 39.7253 55.1064 39.7278 54.9269L39.9093 42.0239C39.9118 41.8444 40.009 41.6804 40.1641 41.5937L51.3206 35.36Z" fill="#D9D9D9" stroke="black" stroke-linejoin="round"/>
<path d="M74.6117 49.8838C74.7669 49.7971 74.9565 49.8008 75.1092 49.8936C75.2618 49.9863 75.3543 50.154 75.3518 50.3335L75.1703 63.2365C75.1678 63.416 75.0706 63.58 74.9154 63.6667L63.759 69.9004C63.6038 69.9871 63.4142 69.9834 63.2615 69.8906C63.1088 69.7978 63.0164 69.6301 63.0189 69.4507L63.2004 56.5476C63.2029 56.3682 63.3 56.2042 63.4552 56.1175L74.6117 49.8838Z" fill="#D9D9D9" stroke="black" stroke-linejoin="round"/>
<path d="M62.9025 56.4719C63.0577 56.3852 63.2473 56.3889 63.4 56.4817C63.5526 56.5745 63.6451 56.7422 63.6426 56.9216L63.4611 69.8247C63.4586 70.0041 63.3615 70.1681 63.2063 70.2548L52.0498 76.4885C51.8946 76.5752 51.705 76.5715 51.5523 76.4787C51.3997 76.386 51.3072 76.2183 51.3097 76.0388L51.4912 63.1358C51.4937 62.9563 51.5909 62.7923 51.7461 62.7056L62.9025 56.4719Z" fill="#D9D9D9" stroke="black" stroke-linejoin="round"/>
<path d="M51.1935 63.06C51.3487 62.9733 51.5383 62.977 51.6909 63.0698C51.8436 63.1626 51.9361 63.3303 51.9336 63.5097L51.7521 76.4128C51.7496 76.5922 51.6524 76.7562 51.4972 76.8429L40.3408 83.0766C40.1856 83.1633 39.9959 83.1596 39.8433 83.0668C39.6906 82.9741 39.5982 82.8064 39.6007 82.6269L39.7821 69.7239C39.7847 69.5444 39.8818 69.3804 40.037 69.2937L51.1935 63.06Z" fill="#D9D9D9" stroke="black" stroke-linejoin="round"/>
</g>
<defs>
<clipPath id="clip0_1_126">
<rect width="80.469" height="85.9713" fill="white"/>
</clipPath>
</defs>
</svg>
