<svg width="81" height="76" viewBox="0 0 81 76" fill="none" xmlns="http://www.w3.org/2000/svg">
<path d="M6.02739 25.3945C5.87419 25.3043 5.68452 25.3038 5.52982 25.3931C5.37513 25.4824 5.2789 25.648 5.27739 25.8275L5.16915 38.7313C5.16765 38.9108 5.2611 39.077 5.4143 39.1671L16.428 45.6497C16.5812 45.7399 16.7709 45.7404 16.9256 45.6511C17.0803 45.5618 17.1765 45.3962 17.178 45.2167L17.2862 32.3129C17.2878 32.1334 17.1943 31.9672 17.0411 31.8771L6.02739 25.3945Z" fill="#D9D9D9" stroke="black" stroke-linejoin="round"/>
<path d="M5.75249 24.7513C5.59794 24.8392 5.50291 25.0033 5.50319 25.1819C5.50346 25.3606 5.59901 25.5265 5.75384 25.6174L16.885 32.1456C17.0398 32.2365 17.2304 32.2383 17.385 32.1505L28.4961 25.8362C28.6506 25.7484 28.7456 25.5843 28.7454 25.4056C28.7451 25.227 28.6495 25.061 28.4947 24.9702L17.3636 18.4419C17.2087 18.3511 17.0181 18.3493 16.8636 18.4371L5.75249 24.7513Z" fill="#D9D9D9" stroke="black" stroke-linejoin="round"/>
<path d="M29.0831 38.45C28.9286 38.5379 28.8335 38.702 28.8338 38.8806C28.8341 39.0593 28.9296 39.2252 29.0845 39.3161L40.2156 45.8443C40.3704 45.9352 40.561 45.937 40.7156 45.8492L51.8267 39.5349C51.9812 39.4471 52.0763 39.283 52.076 39.1043C52.0757 38.9257 51.9802 38.7597 51.8253 38.6689L40.6942 32.1406C40.5394 32.0498 40.3488 32.048 40.1942 32.1358L29.0831 38.45Z" fill="#D9D9D9" stroke="black" stroke-linejoin="round"/>
<path d="M52.413 24.98C52.2585 25.068 52.1637 25.2323 52.1642 25.4109C52.1647 25.5896 52.2605 25.7554 52.4154 25.846L63.555 32.36C63.7099 32.4506 63.9005 32.4522 64.055 32.3642L75.1579 26.0357C75.3124 25.9476 75.4072 25.7834 75.4067 25.6047C75.4062 25.4261 75.3104 25.2602 75.1555 25.1696L64.0159 18.6557C63.861 18.5651 63.6704 18.5635 63.5159 18.6515L52.413 24.98Z" fill="#D9D9D9" stroke="black" stroke-linejoin="round"/>
<path d="M17.5857 32.2438C17.4325 32.1537 17.2429 32.1531 17.0882 32.2424C16.9335 32.3318 16.8373 32.4973 16.8357 32.6768L16.7275 45.5807C16.726 45.7602 16.8194 45.9263 16.9727 46.0165L27.9864 52.499C28.1396 52.5892 28.3292 52.5897 28.4839 52.5004C28.6386 52.4111 28.7349 52.2455 28.7364 52.066L28.8446 39.1622C28.8461 38.9827 28.7527 38.8166 28.5995 38.7264L17.5857 32.2438Z" fill="#D9D9D9" stroke="black" stroke-linejoin="round"/>
<path d="M29.144 39.0932C28.9908 39.003 28.8011 39.0025 28.6464 39.0918C28.4917 39.1811 28.3955 39.3467 28.394 39.5262L28.2857 52.43C28.2842 52.6095 28.3777 52.7757 28.5309 52.8658L39.5446 59.3484C39.6978 59.4386 39.8875 59.4391 40.0422 59.3498C40.1969 59.2605 40.2931 59.0949 40.2946 58.9154L40.4028 46.0116C40.4043 45.8321 40.3109 45.6659 40.1577 45.5758L29.144 39.0932Z" fill="#D9D9D9" stroke="black" stroke-linejoin="round"/>
<path d="M5.8134 39.0932C5.6602 39.003 5.47053 39.0025 5.31584 39.0918C5.16114 39.1811 5.06491 39.3467 5.06341 39.5262L4.95516 52.43C4.95366 52.6095 5.04711 52.7757 5.20031 52.8658L16.214 59.3484C16.3672 59.4386 16.5569 59.4391 16.7116 59.3498C16.8663 59.2605 16.9625 59.0949 16.964 58.9154L17.0723 46.0116C17.0738 45.8321 16.9803 45.6659 16.8271 45.5758L5.8134 39.0932Z" fill="#D9D9D9" stroke="black" stroke-linejoin="round"/>
<path d="M17.3716 45.9425C17.2184 45.8524 17.0288 45.8518 16.8741 45.9411C16.7194 46.0305 16.6231 46.196 16.6216 46.3755L16.5134 59.2794C16.5119 59.4589 16.6053 59.625 16.7585 59.7152L27.7723 66.1977C27.9254 66.2879 28.1151 66.2884 28.2698 66.1991C28.4245 66.1098 28.5207 65.9442 28.5222 65.7647L28.6305 52.8609C28.632 52.6814 28.5385 52.5153 28.3853 52.4251L17.3716 45.9425Z" fill="#D9D9D9" stroke="black" stroke-linejoin="round"/>
<path d="M28.93 52.7919C28.7768 52.7017 28.5871 52.7012 28.4324 52.7905C28.2777 52.8798 28.1815 53.0454 28.18 53.2249L28.0717 66.1287C28.0702 66.3082 28.1637 66.4743 28.3169 66.5645L39.3306 73.0471C39.4838 73.1372 39.6735 73.1378 39.8282 73.0485C39.9829 72.9591 40.0791 72.7935 40.0806 72.6141L40.1888 59.7102C40.1903 59.5307 40.0969 59.3646 39.9437 59.2744L28.93 52.7919Z" fill="#D9D9D9" stroke="black" stroke-linejoin="round"/>
<path d="M74.6656 26.1425C74.8206 26.0554 75.0102 26.0587 75.1631 26.1511C75.316 26.2435 75.4089 26.4109 75.4068 26.5904L75.2563 39.4938C75.2542 39.6733 75.1575 39.8375 75.0025 39.9246L63.8611 46.1851C63.7061 46.2722 63.5164 46.2689 63.3636 46.1765C63.2107 46.0841 63.1178 45.9166 63.1199 45.7372L63.2703 32.8337C63.2724 32.6543 63.3692 32.49 63.5242 32.403L74.6656 26.1425Z" fill="#D9D9D9" stroke="black" stroke-linejoin="round"/>
<path d="M62.9724 32.7587C63.1274 32.6717 63.317 32.6749 63.4699 32.7673C63.6228 32.8597 63.7156 33.0272 63.7135 33.2067L63.5631 46.1101C63.561 46.2896 63.4642 46.4538 63.3093 46.5409L52.1678 52.8014C52.0129 52.8885 51.8232 52.8852 51.6703 52.7928C51.5175 52.7004 51.4246 52.5329 51.4267 52.3534L51.5771 39.45C51.5792 39.2705 51.676 39.1063 51.8309 39.0192L62.9724 32.7587Z" fill="#D9D9D9" stroke="black" stroke-linejoin="round"/>
<path d="M51.2791 39.375C51.4341 39.288 51.6238 39.2912 51.7766 39.3836C51.9295 39.476 52.0224 39.6435 52.0203 39.823L51.8699 52.7264C51.8678 52.9059 51.771 53.0701 51.616 53.1572L40.4746 59.4177C40.3196 59.5048 40.13 59.5015 39.9771 59.4091C39.8242 59.3167 39.7313 59.1492 39.7334 58.9697L39.8839 46.0663C39.886 45.8868 39.9827 45.7226 40.1377 45.6355L51.2791 39.375Z" fill="#D9D9D9" stroke="black" stroke-linejoin="round"/>
<path d="M74.6051 39.8427C74.76 39.7556 74.9497 39.7589 75.1026 39.8513C75.2554 39.9437 75.3483 40.1112 75.3462 40.2907L75.1958 53.1941C75.1937 53.3736 75.0969 53.5378 74.942 53.6249L63.8005 59.8854C63.6455 59.9725 63.4559 59.9692 63.303 59.8768C63.1501 59.7844 63.0573 59.6169 63.0594 59.4374L63.2098 46.534C63.2119 46.3545 63.3086 46.1903 63.4636 46.1032L74.6051 39.8427Z" fill="#D9D9D9" stroke="black" stroke-linejoin="round"/>
<path d="M62.9118 46.459C63.0667 46.3719 63.2564 46.3752 63.4093 46.4676C63.5621 46.56 63.655 46.7275 63.6529 46.9069L63.5025 59.8104C63.5004 59.9898 63.4036 60.1541 63.2487 60.2411L52.1072 66.5016C51.9522 66.5887 51.7626 66.5855 51.6097 66.4931C51.4568 66.4007 51.364 66.2332 51.3661 66.0537L51.5165 53.1503C51.5186 52.9708 51.6154 52.8066 51.7703 52.7195L62.9118 46.459Z" fill="#D9D9D9" stroke="black" stroke-linejoin="round"/>
<path d="M51.2185 53.0753C51.3735 52.9882 51.5632 52.9915 51.716 53.0839C51.8689 53.1763 51.9618 53.3437 51.9597 53.5232L51.8093 66.4266C51.8072 66.6061 51.7104 66.7703 51.5554 66.8574L40.414 73.1179C40.259 73.205 40.0694 73.2017 39.9165 73.1093C39.7636 73.0169 39.6707 72.8494 39.6728 72.67L39.8233 59.7665C39.8254 59.5871 39.9221 59.4228 40.0771 59.3358L51.2185 53.0753Z" fill="#D9D9D9" stroke="black" stroke-linejoin="round"/>
<rect x="14.2689" y="25.6063" width="52.2948" height="14.4189" fill="#D9D9D9" stroke="black" stroke-linejoin="round"/>
<path d="M16.8299 0.5C16.5701 0.5 16.3536 0.698956 16.3317 0.957821L14.2707 25.302C14.2589 25.4414 14.3061 25.5794 14.4008 25.6824C14.4954 25.7855 14.629 25.8441 14.7689 25.8441H66.0637C66.2016 25.8441 66.3334 25.7872 66.4279 25.6867C66.5224 25.5863 66.5712 25.4513 66.5628 25.3136L65.0743 0.969486C65.0582 0.705686 64.8395 0.5 64.5752 0.5H16.8299Z" fill="#D9D9D9" stroke="black" stroke-linejoin="round"/>
<line x1="32.1508" y1="25.8899" x2="32.1508" y2="39.7416" stroke="black" stroke-linejoin="round"/>
<line x1="49.8983" y1="25.8899" x2="49.8983" y2="39.7416" stroke="black" stroke-linejoin="round"/>
<line x1="32.0168" y1="25.6559" x2="32.8825" y2="0.982464" stroke="black" stroke-linejoin="round"/>
<line x1="49.7643" y1="25.691" x2="48.8986" y2="1.01753" stroke="black" stroke-linejoin="round"/>
<line x1="15.6346" y1="15.4339" x2="66.0637" y2="15.4339" stroke="black" stroke-linejoin="round"/>
<line x1="15.6347" y1="6.99301" x2="65.198" y2="6.99673" stroke="black"/>
</svg>
